<?xml version="1.0" encoding="iso-8859-1"?>
<!-- Generator: Adobe Illustrator 19.0.0, SVG Export Plug-In . SVG Version: 6.00 Build 0)  -->
<svg version="1.1" id="Layer_1" xmlns="http://www.w3.org/2000/svg" xmlns:xlink="http://www.w3.org/1999/xlink" x="0px" y="0px"
	 viewBox="0 0 490 490" style="enable-background:new 0 0 490 490;" xml:space="preserve">
<g>
	<polygon style="fill:#FFC843;" points="110.838,370.434 79.703,370.434 79.703,415.077 86.375,415.077 110.838,372.624 	"/>
	<path style="fill:#76FFD9;" d="M346.012,328.893l11.41-19.8h-10.555c-2.88,0-4.061-2.039-2.625-4.531l30.462-52.864h-10.846
		c-0.379,0-0.727-0.037-1.045-0.105H301.47L346.012,328.893z"/>
	<path style="fill:#5DE0BF;" d="M301.47,251.593h61.344c-2.098-0.442-2.825-2.263-1.579-4.427l16.618-28.838l-22.435-38.933h-59.675
		l-17.938,31.129L301.47,251.593z"/>
	<polygon style="fill:#00C395;" points="288.294,228.727 316.721,179.395 295.742,179.395 277.805,210.524 	"/>
	<path style="fill:#76FFD9;" d="M280.747,179.395c-2.879,0-4.061-2.039-2.624-4.531l44.846-77.823c1.435-2.492,3.785-2.492,5.221,0
		l44.844,77.823c1.436,2.492,0.256,4.531-2.623,4.531H280.747z"/>
	<path style="fill:#00C395;" d="M299.102,174.864l36.967-64.15l-7.879-13.673c-1.436-2.492-3.785-2.492-5.221,0l-44.846,77.823
		c-1.437,2.492-0.255,4.531,2.624,4.531h20.979C298.847,179.395,297.665,177.356,299.102,174.864z"/>
	<polygon style="fill:#FFC843;" points="385.186,374.813 385.186,396.875 395.674,415.077 416.322,415.077 416.322,374.813 	"/>
	<path style="fill:#76FFD9;" d="M474.685,370.281l-35.259-61.189h-82.004l-11.41,19.8l26.461,45.92h99.587
		C474.94,374.813,476.12,372.773,474.685,370.281z"/>
	<polygon style="fill:#00C395;" points="356.364,346.858 378.126,309.092 357.422,309.092 346.012,328.893 	"/>
	<path style="fill:#5DE0BF;" d="M452.607,304.561l-30.463-52.864h-47.44l-30.462,52.864c-1.436,2.492-0.255,4.531,2.625,4.531
		h103.115C452.861,309.092,454.043,307.054,452.607,304.561z"/>
	<path style="fill:#76FFD9;" d="M432.992,251.697c2.879,0,4.06-2.039,2.623-4.531l-34.58-60.009
		c-1.436-2.492-3.785-2.492-5.221,0.001l-34.58,60.008c-1.436,2.492-0.255,4.531,2.624,4.531H432.992z"/>
	<path style="fill:#00C395;" d="M364.946,304.561l30.462-52.864h-20.704l-30.462,52.864c-1.436,2.492-0.255,4.531,2.625,4.531
		h20.704C364.691,309.092,363.511,307.054,364.946,304.561z"/>
	<path style="fill:#76FFD9;" d="M432.992,251.697c2.879,0,4.06-2.039,2.623-4.531l-34.58-60.009
		c-1.436-2.492-3.785-2.492-5.221,0.001l-34.58,60.008c-1.436,2.492-0.255,4.531,2.624,4.531H432.992z"/>
	<path style="fill:#00C395;" d="M381.939,247.166l26.839-46.574l-7.742-13.435c-1.436-2.492-3.785-2.492-5.221,0.001l-34.58,60.008
		c-1.436,2.492-0.255,4.531,2.624,4.531h20.704C381.684,251.697,380.503,249.658,381.939,247.166z"/>
	<path style="fill:#76FFD9;" d="M52.347,301.636l-37.032,64.266c-1.436,2.492-0.254,4.531,2.625,4.531h94.16l32.867-57.038
		l-6.775-11.759H52.347z"/>
	<path style="fill:#00C395;" d="M35.611,365.902l37.032-64.266H52.347l-37.032,64.266c-1.436,2.492-0.254,4.531,2.625,4.531h20.296
		C35.357,370.434,34.175,368.395,35.611,365.902z"/>
	<path style="fill:#5DE0BF;" d="M152.109,297.105L120.1,241.554H70.439l-32.012,55.551c-1.435,2.492-0.254,4.531,2.625,4.531
		h108.434C152.365,301.636,153.546,299.597,152.109,297.105z"/>
	<path style="fill:#00C395;" d="M58.724,297.105l32.012-55.551H70.439l-32.012,55.551c-1.435,2.492-0.254,4.531,2.625,4.531h20.296
		C58.47,301.636,57.289,299.597,58.724,297.105z"/>
	<path style="fill:#76FFD9;" d="M131.699,241.554c2.88,0,4.061-2.039,2.625-4.531L97.881,173.78c-1.436-2.492-3.785-2.492-5.221,0
		l-36.445,63.243c-1.436,2.492-0.254,4.531,2.625,4.531H131.699z"/>
	<path style="fill:#00C395;" d="M76.511,237.023l28.907-50.162l-7.538-13.08c-1.436-2.492-3.785-2.492-5.221,0l-36.445,63.243
		c-1.436,2.492-0.254,4.531,2.625,4.531h20.296C76.257,241.554,75.076,239.515,76.511,237.023z"/>
	<polygon style="fill:#FFFFFF;" points="86.375,415.077 241.024,146.695 395.674,415.077 	"/>
	<path style="fill:#FFC843;" d="M320.4,415.077c-37.725-16.24-77.657-130.971-77.657-130.971c-0.945-2.716-2.491-2.716-3.437,0
		c0,0-39.934,114.731-77.661,130.971H320.4z"/>
	<path style="fill:#FFB400;" d="M320.4,415.077c-19.773-8.507-40.149-44.064-55.067-75.995v75.995H320.4z"/>
	<path style="fill:#FFB400;" d="M193.072,415.077c23.913-10.289,48.711-60.141,63.666-95.284
		c-8.639-20.298-13.995-35.687-13.995-35.687c-0.945-2.716-2.491-2.716-3.437,0c0,0-39.947,114.763-77.679,130.971H193.072z"/>
	<polygon style="fill:#D8E0EA;" points="241.024,146.695 86.375,415.077 117.701,415.077 256.687,173.877 	"/>
	<path style="fill:#FFC843;" d="M107.713,94.616c-23.979,0-43.486-19.541-43.486-43.561c0-23.908,19.418-43.447,43.285-43.556
		c0.006,0,0.01,0,0.015,0c1.068,0,2.063,0.542,2.642,1.44c0.581,0.901,0.66,2.036,0.211,3.01c-2.275,4.929-3.43,10.189-3.43,15.635
		c0,20.561,16.69,37.288,37.205,37.288l0.187-0.004c1.071,0,2.068,0.545,2.645,1.446c0.577,0.901,0.656,2.033,0.207,3.004
		C140.098,84.686,124.601,94.616,107.713,94.616z"/>
	<path style="fill:#FFB400;" d="M126.231,86c-23.979,0-43.486-19.541-43.486-43.56c0-13.784,6.462-26.107,16.503-34.1
		c-19.927,3.966-35.021,21.639-35.021,42.716c0,24.02,19.508,43.561,43.486,43.561c9.976,0,19.466-3.467,27.026-9.472
		C131.966,85.703,129.12,86,126.231,86z"/>
	<path style="fill:#434C54;" d="M107.713,102.116c19.802,0,37.972-11.641,46.288-29.651c1.532-3.312,1.271-7.124-0.699-10.198
		c-1.965-3.068-5.315-4.9-8.96-4.9c-0.059,0-0.117,0-0.176,0.002l-0.094,0.003c-16.341-0.046-29.622-13.391-29.622-29.788
		c0-4.352,0.921-8.554,2.74-12.493c1.533-3.322,1.265-7.141-0.716-10.213C114.505,1.823,111.161,0,107.477,0
		C79.494,0.127,56.727,23.031,56.727,51.056C56.727,79.21,79.599,102.116,107.713,102.116z M101.067,15.615
		c-1.076,3.874-1.618,7.878-1.618,11.969c0,22.301,16.353,40.847,37.676,44.235c-6.671,9.455-17.634,15.297-29.413,15.297
		c-19.843,0-35.986-16.177-35.986-36.061C71.727,33.476,84.406,18.75,101.067,15.615z"/>
	<path style="fill:#434C54;" d="M116.387,450.089c0-4.142-3.358-7.5-7.5-7.5H67.239c-4.142,0-7.5,3.358-7.5,7.5s3.358,7.5,7.5,7.5
		h41.647C113.029,457.589,116.387,454.231,116.387,450.089z"/>
	<path style="fill:#434C54;" d="M233.443,457.589h41.648c4.143,0,7.5-3.358,7.5-7.5s-3.357-7.5-7.5-7.5h-41.648
		c-4.142,0-7.5,3.358-7.5,7.5S229.301,457.589,233.443,457.589z"/>
	<path style="fill:#434C54;" d="M197.002,450.089c0-4.142-3.358-7.5-7.5-7.5H163.06c-4.142,0-7.5,3.358-7.5,7.5s3.358,7.5,7.5,7.5
		h26.442C193.644,457.589,197.002,454.231,197.002,450.089z"/>
	<path style="fill:#434C54;" d="M336.085,442.589h-26.441c-4.143,0-7.5,3.358-7.5,7.5s3.357,7.5,7.5,7.5h26.441
		c4.142,0,7.5-3.358,7.5-7.5S340.228,442.589,336.085,442.589z"/>
	<path style="fill:#434C54;" d="M422.213,442.589h-26.441c-4.143,0-7.5,3.358-7.5,7.5s3.357,7.5,7.5,7.5h26.441
		c4.143,0,7.5-3.358,7.5-7.5S426.355,442.589,422.213,442.589z"/>
	<path style="fill:#434C54;" d="M147.394,475h-41.647c-4.142,0-7.5,3.358-7.5,7.5s3.358,7.5,7.5,7.5h41.647
		c4.142,0,7.5-3.358,7.5-7.5S151.536,475,147.394,475z"/>
	<path style="fill:#434C54;" d="M312.787,475H271.14c-4.143,0-7.5,3.358-7.5,7.5s3.357,7.5,7.5,7.5h41.648
		c4.143,0,7.5-3.358,7.5-7.5S316.93,475,312.787,475z"/>
	<path style="fill:#434C54;" d="M227.197,475h-26.441c-4.142,0-7.5,3.358-7.5,7.5s3.358,7.5,7.5,7.5h26.441
		c4.142,0,7.5-3.358,7.5-7.5S231.339,475,227.197,475z"/>
	<path style="fill:#434C54;" d="M384.254,475h-26.441c-4.143,0-7.5,3.358-7.5,7.5s3.357,7.5,7.5,7.5h26.441
		c4.143,0,7.5-3.358,7.5-7.5S388.397,475,384.254,475z"/>
	<path style="fill:#434C54;" d="M480.889,407.577h-57.066v-25.265h48.237c4.063,0,7.587-1.899,9.425-5.08
		c1.838-3.179,1.726-7.177-0.302-10.696l-8.23-14.283c-2.067-3.588-6.656-4.821-10.242-2.754c-3.59,2.068-4.822,6.654-2.754,10.243
		l4.361,7.57h-87.511l-22.141-38.422l7.086-12.298h73.339l9.308,16.153c2.067,3.589,6.653,4.82,10.242,2.754
		c3.589-2.068,4.822-6.654,2.754-10.243l-5.125-8.895c3.071-0.575,5.655-2.286,7.138-4.849c1.838-3.179,1.726-7.177-0.302-10.696
		l-24.089-41.803c3.188-0.524,5.877-2.261,7.4-4.898c1.837-3.18,1.724-7.179-0.304-10.695l-34.579-60.009
		c-2.029-3.522-5.435-5.624-9.109-5.624s-7.08,2.103-9.108,5.624l-11.464,19.894l-9.457-16.412h2.015
		c4.063,0,7.587-1.899,9.425-5.08c1.837-3.18,1.724-7.179-0.304-10.696l-44.843-77.822c-2.029-3.522-5.435-5.625-9.109-5.625
		s-7.08,2.103-9.108,5.624l-44.846,77.822c-2.027,3.518-2.141,7.516-0.304,10.696c1.839,3.181,5.362,5.08,9.426,5.08h2.018
		l-4.96,8.607l-28.08-48.731l32.968-57.217c2.068-3.589,0.835-8.175-2.754-10.243c-3.59-2.068-8.176-0.835-10.242,2.754
		l-28.672,49.761L212.35,82.065c-2.068-3.589-6.654-4.821-10.243-2.754c-3.589,2.068-4.822,6.654-2.754,10.243l32.971,57.217
		L153.231,284.03l-20.199-35.055c3.491-0.369,6.458-2.175,8.092-5.001c1.837-3.179,1.725-7.177-0.302-10.696l-36.442-63.241
		c-2.029-3.522-5.435-5.626-9.109-5.626c-3.675,0-7.08,2.103-9.108,5.624l-36.446,63.244c-2.026,3.517-2.139,7.515-0.302,10.695
		c1.634,2.827,4.601,4.633,8.092,5.002l-25.578,44.386c-2.026,3.518-2.139,7.516-0.301,10.695c1.589,2.749,4.439,4.533,7.804,4.969
		L8.815,362.159c-2.026,3.518-2.139,7.516-0.301,10.695c1.838,3.181,5.362,5.08,9.425,5.08h54.264v29.643H9.111
		c-4.142,0-7.5,3.358-7.5,7.5c0,4.142,3.358,7.5,7.5,7.5h77.264h394.514c4.143,0,7.5-3.358,7.5-7.5
		C488.389,410.935,485.031,407.577,480.889,407.577z M442.24,301.592h-87.631l24.429-42.395h38.772L442.24,301.592z
		 M338.117,300.169l-23.67-41.077h47.339L338.117,300.169z M398.425,197.649l26.823,46.548h-53.646L398.425,197.649z M320,171.895
		h-31.51l37.089-64.362l37.087,64.362H348c-4.143,0-7.5,3.358-7.5,7.5c0,4.142,3.357,7.5,7.5,7.5h3.083l18.113,31.433
		l-14.461,25.094c-0.127,0.22-0.224,0.447-0.335,0.67h-48.597l-19.345-33.571l13.613-23.627H320c4.143,0,7.5-3.358,7.5-7.5
		C327.5,175.253,324.143,171.895,320,171.895z M95.27,184.272l28.687,49.782H66.582L95.27,184.272z M25.681,362.934l31-53.797H94
		c4.142,0,7.5-3.358,7.5-7.5s-3.358-7.5-7.5-7.5H48.794l25.979-45.082h40.992l25.977,45.082H121c-4.142,0-7.5,3.358-7.5,7.5
		s3.358,7.5,7.5,7.5h12.856l2.454,4.259l-28.545,49.538H25.681z M87.203,398.618v-20.685h11.919L87.203,398.618z M99.353,407.577
		l141.671-245.86l141.672,245.86H99.353z M408.822,407.577h-8.814l-7.322-12.707v-12.557h16.137V407.577z"/>
</g>
<g>
</g>
<g>
</g>
<g>
</g>
<g>
</g>
<g>
</g>
<g>
</g>
<g>
</g>
<g>
</g>
<g>
</g>
<g>
</g>
<g>
</g>
<g>
</g>
<g>
</g>
<g>
</g>
<g>
</g>
</svg>
